<svg width="100%" height="100%" viewBox="0 0 54 52" version="1.1" xmlns="http://www.w3.org/2000/svg" xmlns:xlink="http://www.w3.org/1999/xlink">
    <path class="flower-1" fill="pink"
        d="M26.832,4.594c7.153,5.624 8.06,12.128 2.723,19.513c-1.624,-1.185 -3.822,-1.185 -5.446,0c-5.337,-7.385 -4.43,-13.889 2.723,-19.513Zm-22.026,16.086c7.531,-5.1 13.966,-3.958 19.303,3.427c-1.623,1.186 -2.302,3.287 -1.682,5.206c-8.637,2.821 -14.511,-0.057 -17.621,-8.633Zm8.413,26.028c-2.498,-8.776 0.571,-14.574 9.208,-17.395c0.62,1.918 2.398,3.217 4.405,3.217c0,9.128 -4.538,13.854 -13.613,14.178Zm27.226,-0c-9.075,-0.324 -13.613,-5.05 -13.613,-14.178c2.007,0 3.785,-1.299 4.405,-3.217c8.637,2.821 11.706,8.619 9.208,17.395Zm8.413,-26.028c-3.11,8.576 -8.984,11.454 -17.621,8.633c0.62,-1.919 -0.059,-4.02 -1.682,-5.206c5.337,-7.385 11.772,-8.527 19.303,-3.427Z" />
</svg>