<svg width="100%" height="100%" viewBox="0 0 56 57" version="1.1" xmlns="http://www.w3.org/2000/svg" xmlns:xlink="http://www.w3.org/1999/xlink" xml:space="preserve">
    <path class="flower-2"
        d="M27.96,4.825c2.504,6.125 2.904,12.386 1.199,18.783c-0.786,-0.212 -1.612,-0.212 -2.398,-0c-1.705,-6.397 -1.305,-12.658 1.199,-18.783Zm-11.58,3.119c5.216,4.046 8.676,9.267 10.381,15.664c-0.785,0.211 -1.501,0.627 -2.076,1.205c-4.659,-4.683 -7.427,-10.306 -8.305,-16.869Zm-8.477,8.521c6.529,0.882 12.123,3.665 16.782,8.348c-0.575,0.577 -0.989,1.297 -1.199,2.087c-6.364,-1.714 -11.558,-5.192 -15.583,-10.435Zm-3.103,11.64c6.094,-2.517 12.322,-2.919 18.686,-1.205c-0.211,0.789 -0.211,1.62 -0,2.41c-6.364,1.714 -12.592,1.312 -18.686,-1.205Zm3.103,11.64c4.025,-5.243 9.219,-8.721 15.583,-10.435c0.21,0.789 0.624,1.509 1.199,2.087c-4.659,4.683 -10.253,7.465 -16.782,8.348Zm8.477,8.521c0.878,-6.563 3.646,-12.186 8.305,-16.869c0.575,0.578 1.291,0.994 2.076,1.205c-1.705,6.397 -5.165,11.618 -10.381,15.664Zm11.58,3.119c-2.504,-6.125 -2.904,-12.386 -1.199,-18.783c0.786,0.212 1.612,0.212 2.398,0c1.705,6.397 1.305,12.658 -1.199,18.783Zm11.58,-3.119c-5.216,-4.046 -8.676,-9.267 -10.381,-15.664c0.785,-0.211 1.501,-0.627 2.076,-1.205c4.659,4.683 7.427,10.306 8.305,16.869Zm8.477,-8.521c-6.529,-0.883 -12.123,-3.665 -16.782,-8.348c0.575,-0.578 0.989,-1.298 1.199,-2.087c6.364,1.714 11.558,5.192 15.583,10.435Zm3.103,-11.64c-6.094,2.517 -12.322,2.919 -18.686,1.205c0.211,-0.79 0.211,-1.621 0,-2.41c6.364,-1.714 12.592,-1.312 18.686,1.205Zm-3.103,-11.64c-4.025,5.243 -9.219,8.721 -15.583,10.435c-0.21,-0.79 -0.624,-1.51 -1.199,-2.087c4.659,-4.683 10.253,-7.466 16.782,-8.348Zm-8.477,-8.521c-0.878,6.563 -3.646,12.186 -8.305,16.869c-0.575,-0.578 -1.291,-0.994 -2.076,-1.205c1.705,-6.397 5.165,-11.618 10.381,-15.664Z" />
</svg>