<?xml version="1.0" encoding="UTF-8" standalone="no"?><!DOCTYPE svg PUBLIC "-//W3C//DTD SVG 1.1//EN" "http://www.w3.org/Graphics/SVG/1.1/DTD/svg11.dtd"><svg width="100%" height="100%" viewBox="0 0 192 192" version="1.1" xmlns="http://www.w3.org/2000/svg" xmlns:xlink="http://www.w3.org/1999/xlink" xml:space="preserve" xmlns:serif="http://www.serif.com/" style="fill-rule:evenodd;clip-rule:evenodd;stroke-linejoin:round;stroke-miterlimit:2;"><g id="fuck-type"></g><rect id="Artboard7" x="-840.321" y="-673.642" width="2321.28" height="1738.08" style="fill:none;"/><rect x="0" y="0" width="192" height="192" style="fill:none;"/><clipPath id="_clip1"><rect x="0" y="0" width="192" height="192"/></clipPath><g clip-path="url(#_clip1)"><g id="edge-cogs"><g><path d="M4.466,15.062c5.31,7.389 4.376,13.89 -2.802,19.502c-1.23,-1.59 -3.342,-2.2 -5.231,-1.512c-3.078,-8.576 -0.4,-14.573 8.033,-17.99Zm-25.626,9.338c8.651,-2.808 14.515,0.076 17.593,8.652c-1.889,0.689 -3.125,2.519 -3.062,4.534c-9.08,0.312 -13.924,-4.083 -14.531,-13.186Zm0.855,27.341c0.037,-9.125 4.596,-13.843 13.676,-14.155c0.063,2.015 1.411,3.757 3.339,4.314c-2.535,8.769 -8.206,12.049 -17.015,9.841Zm26.156,7.559c-8.629,-2.831 -11.676,-8.631 -9.141,-17.4c1.928,0.557 3.997,-0.197 5.125,-1.868c7.514,5.108 8.853,11.531 4.016,19.268Zm15.309,-22.668c-5.369,7.375 -11.811,8.508 -19.325,3.4c1.129,-1.67 1.059,-3.878 -0.171,-5.468c7.178,-5.612 13.677,-4.923 19.496,2.068Z" style="fill:#fff;"/><path d="M196.465,15.062c5.31,7.389 4.376,13.89 -2.802,19.502c-1.23,-1.59 -3.342,-2.2 -5.231,-1.512c-3.078,-8.576 -0.4,-14.573 8.033,-17.99Zm-25.626,9.338c8.651,-2.808 14.515,0.076 17.593,8.652c-1.889,0.689 -3.125,2.519 -3.062,4.534c-9.08,0.312 -13.924,-4.083 -14.531,-13.186Zm0.855,27.341c0.037,-9.125 4.596,-13.843 13.676,-14.155c0.063,2.015 1.411,3.757 3.339,4.314c-2.535,8.769 -8.206,12.049 -17.015,9.841Zm26.156,7.559c-8.629,-2.831 -11.676,-8.631 -9.141,-17.4c1.928,0.557 3.997,-0.197 5.125,-1.868c7.514,5.108 8.853,11.531 4.016,19.268Zm15.309,-22.668c-5.369,7.375 -11.811,8.508 -19.325,3.4c1.128,-1.67 1.059,-3.878 -0.171,-5.468c7.178,-5.612 13.677,-4.923 19.496,2.068Z" style="fill:#fff;"/></g><g><path d="M176.603,94.758c6.387,6.48 6.467,13.047 0.241,19.7c-1.461,-1.381 -3.642,-1.658 -5.402,-0.686c-4.364,-7.999 -2.644,-14.337 5.161,-19.014Zm-23.879,13.18c8.115,-4.11 14.354,-2.165 18.718,5.834c-1.76,0.971 -2.699,2.97 -2.325,4.952c-8.924,1.709 -14.388,-1.886 -16.393,-10.786Zm5.065,26.881c-1.372,-9.021 2.404,-14.386 11.328,-16.095c0.373,1.981 1.973,3.494 3.964,3.747c-1.151,9.055 -6.248,13.171 -15.292,12.348Zm27.009,3.433c-8.962,-1.466 -12.868,-6.726 -11.717,-15.781c1.991,0.253 3.919,-0.812 4.776,-2.637c8.212,3.888 10.526,10.027 6.941,18.418Zm11.628,-24.76c-4.167,8.115 -10.357,10.23 -18.569,6.342c0.857,-1.824 0.448,-3.995 -1.013,-5.376c6.226,-6.653 12.753,-6.975 19.582,-0.966Z" style="fill:#fff;fill-opacity:0.86;"/><path d="M-15.401,94.758c6.387,6.48 6.467,13.047 0.241,19.7c-1.461,-1.381 -3.642,-1.658 -5.402,-0.686c-4.364,-7.999 -2.644,-14.337 5.161,-19.014Zm-23.878,13.18c8.114,-4.11 14.353,-2.165 18.717,5.834c-1.76,0.971 -2.699,2.97 -2.325,4.952c-8.924,1.709 -14.388,-1.886 -16.392,-10.786Zm5.064,26.881c-1.371,-9.021 2.404,-14.386 11.328,-16.095c0.373,1.981 1.974,3.494 3.964,3.747c-1.15,9.055 -6.248,13.171 -15.292,12.348Zm27.009,3.433c-8.962,-1.466 -12.867,-6.726 -11.717,-15.781c1.991,0.253 3.919,-0.812 4.776,-2.637c8.212,3.888 10.526,10.027 6.941,18.418Zm11.628,-24.76c-4.167,8.115 -10.357,10.23 -18.569,6.342c0.857,-1.824 0.448,-3.995 -1.013,-5.376c6.226,-6.653 12.754,-6.975 19.582,-0.966Z" style="fill:#fff;fill-opacity:0.86;"/></g><g><path d="M2.815,145.666c8.332,3.656 10.838,9.726 7.518,18.212c-1.868,-0.742 -3.997,-0.192 -5.272,1.362c-7.015,-5.814 -7.764,-12.339 -2.246,-19.574Zm-17.301,21.086c6.016,-6.823 12.532,-7.326 19.547,-1.512c-1.275,1.554 -1.407,3.759 -0.327,5.461c-7.656,4.892 -14.063,3.576 -19.22,-3.949Zm14.658,23.095c-4.615,-7.872 -3.094,-14.254 4.562,-19.146c1.081,1.702 3.128,2.515 5.071,2.013c2.284,8.837 -0.927,14.548 -9.633,17.133Zm26.36,-6.812c-8.868,1.957 -14.443,-1.484 -16.727,-10.321c1.943,-0.502 3.339,-2.205 3.46,-4.217c9.068,0.57 13.49,5.416 13.267,14.538Zm1.634,-27.305c-0.867,9.081 -5.833,13.337 -14.901,12.767c0.12,-2.013 -1.063,-3.878 -2.932,-4.619c3.32,-8.486 9.265,-11.202 17.833,-8.148Z" style="fill:#fff;"/><path d="M194.815,145.666c8.333,3.656 10.839,9.726 7.519,18.212c-1.869,-0.742 -3.997,-0.192 -5.272,1.362c-7.016,-5.814 -7.765,-12.339 -2.247,-19.574Zm-17.301,21.086c6.016,-6.823 12.532,-7.326 19.548,-1.512c-1.276,1.554 -1.407,3.759 -0.327,5.461c-7.656,4.892 -14.063,3.576 -19.221,-3.949Zm14.658,23.095c-4.614,-7.872 -3.093,-14.254 4.563,-19.146c1.08,1.702 3.127,2.515 5.07,2.013c2.284,8.837 -0.927,14.548 -9.633,17.133Zm26.361,-6.812c-8.868,1.957 -14.444,-1.484 -16.728,-10.321c1.943,-0.502 3.34,-2.205 3.46,-4.217c9.068,0.57 13.49,5.416 13.268,14.538Zm1.633,-27.305c-0.866,9.081 -5.833,13.337 -14.901,12.767c0.121,-2.013 -1.063,-3.878 -2.931,-4.619c3.32,-8.486 9.264,-11.202 17.832,-8.148Z" style="fill:#fff;"/></g><g><path d="M11.807,61.743c8.332,3.655 10.838,9.726 7.518,18.211c-1.868,-0.741 -3.997,-0.191 -5.272,1.363c-7.016,-5.815 -7.764,-12.339 -2.246,-19.574Zm-17.301,21.085c6.016,-6.822 12.531,-7.326 19.547,-1.511c-1.275,1.554 -1.407,3.758 -0.327,5.461c-7.656,4.892 -14.063,3.575 -19.22,-3.95Zm14.658,23.095c-4.615,-7.871 -3.094,-14.253 4.562,-19.145c1.081,1.702 3.128,2.514 5.07,2.012c2.284,8.838 -0.927,14.549 -9.632,17.133Zm26.36,-6.812c-8.868,1.958 -14.444,-1.483 -16.728,-10.321c1.943,-0.502 3.34,-2.204 3.461,-4.217c9.067,0.57 13.49,5.416 13.267,14.538Zm1.633,-27.305c-0.866,9.082 -5.833,13.337 -14.9,12.767c0.12,-2.012 -1.064,-3.877 -2.932,-4.619c3.32,-8.485 9.264,-11.201 17.832,-8.148Z" style="fill:#fff;fill-opacity:0.68;"/><path d="M203.815,61.743c8.333,3.655 10.839,9.726 7.519,18.211c-1.869,-0.741 -3.997,-0.191 -5.272,1.363c-7.016,-5.815 -7.765,-12.339 -2.247,-19.574Zm-17.301,21.085c6.016,-6.822 12.532,-7.326 19.548,-1.511c-1.276,1.554 -1.407,3.758 -0.327,5.461c-7.656,4.892 -14.063,3.575 -19.221,-3.95Zm14.658,23.095c-4.614,-7.871 -3.093,-14.253 4.563,-19.145c1.08,1.702 3.127,2.514 5.07,2.012c2.284,8.838 -0.927,14.549 -9.633,17.133Zm26.361,-6.812c-8.868,1.958 -14.444,-1.483 -16.728,-10.321c1.943,-0.502 3.34,-2.204 3.46,-4.217c9.068,0.57 13.49,5.416 13.268,14.538Zm1.633,-27.305c-0.866,9.082 -5.833,13.337 -14.901,12.767c0.121,-2.012 -1.063,-3.877 -2.931,-4.619c3.32,-8.485 9.264,-11.201 17.832,-8.148Z" style="fill:#fff;fill-opacity:0.68;"/></g><g><path d="M33.133,172.501c8.332,3.656 10.838,9.726 7.518,18.212c-1.869,-0.742 -3.997,-0.192 -5.272,1.362c-7.016,-5.814 -7.765,-12.339 -2.246,-19.574Zm-17.301,21.086c6.015,-6.822 12.531,-7.326 19.547,-1.512c-1.275,1.554 -1.407,3.759 -0.327,5.461c-7.656,4.892 -14.063,3.576 -19.22,-3.949Zm14.658,23.095c-4.615,-7.872 -3.094,-14.254 4.562,-19.146c1.081,1.702 3.127,2.515 5.07,2.013c2.284,8.838 -0.927,14.549 -9.632,17.133Zm26.36,-6.812c-8.868,1.957 -14.444,-1.483 -16.728,-10.321c1.943,-0.502 3.34,-2.205 3.46,-4.217c9.068,0.57 13.491,5.416 13.268,14.538Zm1.633,-27.305c-0.866,9.081 -5.833,13.337 -14.901,12.767c0.121,-2.013 -1.063,-3.878 -2.931,-4.619c3.32,-8.486 9.264,-11.202 17.832,-8.148Z" style="fill:#fff;fill-opacity:0.94;"/><path d="M33.133,-19.499c8.332,3.656 10.838,9.726 7.518,18.212c-1.869,-0.742 -3.997,-0.192 -5.272,1.362c-7.016,-5.814 -7.765,-12.339 -2.246,-19.574Zm-17.301,21.086c6.015,-6.822 12.531,-7.326 19.547,-1.512c-1.275,1.554 -1.407,3.759 -0.327,5.461c-7.656,4.892 -14.063,3.576 -19.22,-3.949Zm14.658,23.095c-4.615,-7.872 -3.094,-14.254 4.562,-19.146c1.081,1.702 3.127,2.515 5.07,2.013c2.284,8.838 -0.927,14.549 -9.632,17.133Zm26.36,-6.812c-8.868,1.957 -14.444,-1.483 -16.728,-10.321c1.943,-0.502 3.34,-2.205 3.46,-4.217c9.068,0.57 13.491,5.416 13.268,14.538Zm1.633,-27.305c-0.866,9.081 -5.833,13.337 -14.901,12.767c0.121,-2.013 -1.063,-3.878 -2.931,-4.619c3.32,-8.486 9.264,-11.202 17.832,-8.148Z" style="fill:#fff;fill-opacity:0.94;"/></g><g><path d="M96.71,153.755c3.831,8.254 1.695,14.464 -6.408,18.631c-0.91,-1.792 -2.871,-2.787 -4.855,-2.465c-1.415,-9.001 2.339,-14.39 11.263,-16.166Zm-26.923,4.37c9.025,-1.138 14.245,2.795 15.66,11.796c-1.984,0.322 -3.541,1.888 -3.857,3.879c-8.978,-1.395 -12.912,-6.62 -11.803,-15.675Zm-4.283,27.016c1.746,-8.956 7.108,-12.736 16.086,-11.341c-0.316,1.992 0.682,3.955 2.471,4.864c-4.133,8.138 -10.319,10.298 -18.557,6.477Zm24.275,12.328c-7.945,-4.398 -9.851,-10.667 -5.718,-18.805c1.789,0.908 3.963,0.555 5.384,-0.874c6.424,6.425 6.535,12.985 0.334,19.679Zm19.287,-19.398c-6.657,6.238 -13.197,6.144 -19.621,-0.281c1.422,-1.43 1.768,-3.611 0.857,-5.404c8.103,-4.167 14.358,-2.272 18.764,5.685Z" style="fill:#fff;"/><path d="M96.71,-38.233c3.831,8.253 1.695,14.463 -6.408,18.631c-0.91,-1.792 -2.871,-2.788 -4.855,-2.466c-1.415,-9.001 2.339,-14.39 11.263,-16.165Zm-26.923,4.369c9.025,-1.137 14.245,2.795 15.66,11.796c-1.984,0.322 -3.541,1.888 -3.857,3.88c-8.978,-1.396 -12.912,-6.621 -11.803,-15.676Zm-4.283,27.016c1.746,-8.956 7.108,-12.736 16.086,-11.34c-0.316,1.991 0.682,3.954 2.471,4.863c-4.133,8.139 -10.319,10.298 -18.557,6.477Zm24.275,12.328c-7.945,-4.398 -9.851,-10.666 -5.718,-18.805c1.789,0.908 3.963,0.556 5.384,-0.874c6.424,6.426 6.535,12.985 0.334,19.679Zm19.287,-19.397c-6.657,6.238 -13.197,6.144 -19.621,-0.282c1.422,-1.43 1.768,-3.611 0.857,-5.403c8.103,-4.168 14.358,-2.273 18.764,5.685Z" style="fill:#fff;"/></g><g><path d="M124.42,166.992c8.625,2.899 11.662,8.722 9.11,17.47c-1.927,-0.573 -3.998,0.165 -5.129,1.826c-7.506,-5.166 -8.833,-11.598 -3.981,-19.296Zm-15.354,22.543c5.384,-7.331 11.829,-8.413 19.335,-3.247c-1.132,1.662 -1.067,3.869 0.161,5.469c-7.19,5.554 -13.689,4.813 -19.496,-2.222Zm16.656,21.698c-5.297,-7.43 -4.35,-13.922 2.84,-19.476c1.227,1.599 3.338,2.226 5.229,1.553c3.062,8.599 0.372,14.573 -8.069,17.923Zm25.649,-9.133c-8.658,2.739 -14.518,-0.191 -17.58,-8.79c1.89,-0.673 3.13,-2.494 3.071,-4.509c9.082,-0.24 13.919,4.193 14.509,13.299Zm-0.805,-27.342c-0.054,9.122 -4.622,13.803 -13.704,14.043c-0.06,-2.015 -1.405,-3.767 -3.332,-4.339c2.552,-8.748 8.23,-11.982 17.036,-9.704Z" style="fill:#fff;fill-opacity:0.78;"/><path d="M124.42,-25.001c8.625,2.899 11.662,8.722 9.11,17.47c-1.927,-0.573 -3.998,0.165 -5.129,1.826c-7.506,-5.166 -8.833,-11.598 -3.981,-19.296Zm-15.354,22.543c5.384,-7.331 11.829,-8.413 19.335,-3.247c-1.132,1.662 -1.067,3.869 0.161,5.469c-7.19,5.554 -13.689,4.813 -19.496,-2.222Zm16.656,21.697c-5.297,-7.429 -4.35,-13.921 2.84,-19.475c1.227,1.599 3.338,2.226 5.229,1.553c3.062,8.599 0.372,14.573 -8.069,17.922Zm25.649,-9.132c-8.658,2.739 -14.518,-0.191 -17.58,-8.79c1.89,-0.673 3.13,-2.494 3.071,-4.509c9.082,-0.24 13.919,4.193 14.509,13.299Zm-0.805,-27.342c-0.054,9.122 -4.622,13.803 -13.704,14.043c-0.06,-2.015 -1.405,-3.767 -3.332,-4.339c2.552,-8.748 8.23,-11.982 17.036,-9.704Z" style="fill:#fff;fill-opacity:0.78;"/></g></g><g id="inside-cogs" serif:id="inside cogs"><path d="M170.552,134.861c4.556,7.876 2.986,14.253 -4.71,19.131c-1.068,-1.704 -3.109,-2.519 -5.057,-2.02c-2.217,-8.838 1.038,-14.542 9.767,-17.111Zm-26.422,6.768c8.886,-1.943 14.438,1.505 16.655,10.343c-1.947,0.499 -3.357,2.198 -3.493,4.21c-9.067,-0.584 -13.454,-5.435 -13.162,-14.553Zm-1.842,27.291c0.936,-9.076 5.937,-13.322 15.004,-12.738c-0.136,2.011 1.034,3.877 2.897,4.622c-3.386,8.477 -9.353,11.182 -17.901,8.116Zm25.284,10.1c-8.308,-3.667 -10.769,-9.739 -7.383,-18.216c1.864,0.744 3.997,0.198 5.285,-1.354c6.974,5.823 7.673,12.347 2.098,19.57Zm17.468,-21.05c-6.07,6.81 -12.592,7.303 -19.566,1.48c1.287,-1.551 1.436,-3.755 0.368,-5.458c7.696,-4.878 14.096,-3.552 19.198,3.978Z" style="fill:#fff;"/><path d="M61.918,22.08c4.557,7.876 2.987,14.253 -4.709,19.131c-1.068,-1.703 -3.11,-2.519 -5.057,-2.02c-2.218,-8.838 1.038,-14.542 9.766,-17.111Zm-26.422,6.768c8.886,-1.943 14.438,1.505 16.656,10.343c-1.948,0.499 -3.358,2.198 -3.494,4.21c-9.067,-0.584 -13.454,-5.435 -13.162,-14.553Zm-1.841,27.291c0.935,-9.076 5.936,-13.322 15.003,-12.738c-0.136,2.011 1.034,3.877 2.898,4.622c-3.386,8.477 -9.353,11.182 -17.901,8.116Zm25.283,10.1c-8.307,-3.667 -10.768,-9.739 -7.382,-18.216c1.863,0.744 3.997,0.198 5.284,-1.354c6.974,5.823 7.674,12.347 2.098,19.57Zm17.468,-21.05c-6.07,6.81 -12.592,7.303 -19.566,1.48c1.288,-1.551 1.436,-3.755 0.369,-5.458c7.696,-4.878 14.095,-3.552 19.197,3.978Z" style="fill:#fff;"/><path d="M100.336,13.401c6.795,6.051 7.303,12.599 1.524,19.643c-1.548,-1.282 -3.743,-1.417 -5.436,-0.333c-4.876,-7.697 -3.572,-14.134 3.912,-19.31Zm-22.97,14.709c7.83,-4.63 14.182,-3.096 19.058,4.601c-1.692,1.084 -2.499,3.14 -1.997,5.093c-8.793,2.287 -14.48,-0.944 -17.061,-9.694Zm6.806,26.493c-1.957,-8.912 1.462,-14.512 10.255,-16.799c0.501,1.953 2.197,3.358 4.2,3.481c-0.559,9.111 -5.377,13.55 -14.455,13.318Zm27.175,1.666c-9.038,-0.879 -13.279,-5.873 -12.72,-14.984c2.003,0.122 3.857,-1.065 4.594,-2.942c8.448,3.344 11.156,9.319 8.126,17.926Zm9.99,-25.465c-3.63,8.37 -9.668,10.883 -18.116,7.539c0.736,-1.877 0.186,-4.016 -1.361,-5.299c5.779,-7.044 12.271,-7.791 19.477,-2.24Z" style="fill:#fff;fill-opacity:0.82;"/><path d="M34.951,107.307c6.795,6.051 7.303,12.599 1.524,19.643c-1.548,-1.282 -3.742,-1.417 -5.435,-0.333c-4.876,-7.697 -3.573,-14.134 3.911,-19.31Zm-22.969,14.709c7.829,-4.63 14.182,-3.096 19.058,4.601c-1.693,1.084 -2.5,3.14 -1.998,5.093c-8.793,2.287 -14.48,-0.944 -17.06,-9.694Zm6.805,26.493c-1.957,-8.912 1.462,-14.512 10.255,-16.799c0.501,1.953 2.197,3.358 4.2,3.481c-0.558,9.111 -5.377,13.55 -14.455,13.318Zm27.175,1.666c-9.038,-0.878 -13.278,-5.873 -12.72,-14.984c2.003,0.123 3.857,-1.065 4.594,-2.942c8.448,3.344 11.157,9.319 8.126,17.926Zm9.99,-25.465c-3.63,8.37 -9.668,10.883 -18.116,7.539c0.736,-1.877 0.187,-4.016 -1.361,-5.299c5.779,-7.044 12.272,-7.791 19.477,-2.24Z" style="fill:#fff;fill-opacity:0.82;"/><path d="M103.541,59.787c8.826,2.214 12.309,7.781 10.451,16.702c-1.966,-0.42 -3.973,0.478 -4.971,2.223c-7.887,-4.563 -9.714,-10.871 -5.48,-18.925Zm-13.541,23.676c4.794,-7.73 11.134,-9.314 19.021,-4.751c-0.998,1.745 -0.76,3.94 0.589,5.439c-6.732,6.1 -13.269,5.871 -19.61,-0.688Zm18.306,20.326c-5.863,-6.992 -5.428,-13.538 1.304,-19.638c1.35,1.498 3.503,1.957 5.335,1.138c3.726,8.333 1.513,14.5 -6.639,18.5Zm24.854,-11.114c-8.417,3.409 -14.489,0.947 -18.215,-7.386c1.832,-0.819 2.925,-2.731 2.708,-4.735c9.036,-0.951 14.205,3.09 15.507,12.121Zm-2.945,-27.195c0.661,9.099 -3.526,14.123 -12.562,15.074c-0.217,-2.004 -1.695,-3.646 -3.661,-4.065c1.858,-8.921 7.266,-12.59 16.223,-11.009Z" style="fill:#fff;fill-opacity:0.93;"/><path d="M71.985,67.429c4.941,7.64 3.689,14.087 -3.756,19.341c-1.151,-1.649 -3.23,-2.362 -5.151,-1.767c-2.652,-8.718 0.317,-14.576 8.907,-17.574Zm-26.054,8.068c8.779,-2.38 14.495,0.788 17.147,9.506c-1.92,0.594 -3.245,2.362 -3.281,4.377c-9.084,-0.134 -13.706,-4.762 -13.866,-13.883Zm-0.488,27.349c0.485,-9.111 5.27,-13.6 14.354,-13.466c-0.036,2.016 1.225,3.822 3.123,4.473c-2.962,8.634 -8.787,11.632 -17.477,8.993Zm25.753,8.835c-8.479,-3.251 -11.238,-9.194 -8.276,-17.828c1.899,0.651 4.002,-0 5.211,-1.614c7.254,5.471 8.276,11.952 3.065,19.442Zm16.404,-21.889c-5.725,7.102 -12.215,7.918 -19.469,2.447c1.209,-1.613 1.249,-3.821 0.098,-5.469c7.445,-5.254 13.902,-4.246 19.371,3.022Z" style="fill:#fff;fill-opacity:0.98;"/><path d="M79.417,111.681c7.571,5.048 8.984,11.461 4.241,19.241c-1.712,-1.055 -3.903,-0.883 -5.429,0.426c-5.899,-6.945 -5.503,-13.501 1.188,-19.667Zm-20.701,17.759c7.11,-5.673 13.614,-5.037 19.513,1.908c-1.526,1.308 -2.039,3.457 -1.271,5.321c-8.389,3.487 -14.47,1.078 -18.242,-7.229Zm10.423,25.291c-3.177,-8.554 -0.57,-14.575 7.819,-18.062c0.769,1.864 2.643,3.02 4.644,2.863c0.714,9.1 -3.441,14.166 -12.463,15.199Zm27.143,-2.129c-9.073,0.386 -13.966,-3.97 -14.68,-13.07c2,-0.157 3.672,-1.591 4.14,-3.552c8.831,2.136 12.344,7.677 10.54,16.622Zm6.352,-26.607c-2.43,8.793 -8.061,12.121 -16.892,9.985c0.468,-1.961 -0.373,-4.003 -2.084,-5.058c4.743,-7.78 11.069,-9.422 18.976,-4.927Z" style="fill:#fff;fill-opacity:0.68;"/><path d="M158.051,15.921c4.102,8.122 2.173,14.4 -5.788,18.833c-0.969,-1.761 -2.961,-2.691 -4.934,-2.304c-1.712,-8.949 1.862,-14.459 10.722,-16.529Zm-26.764,5.258c8.982,-1.435 14.33,2.322 16.042,11.271c-1.973,0.388 -3.477,2.005 -3.727,4.005c-9.019,-1.097 -13.124,-6.189 -12.315,-15.276Zm-3.387,27.143c1.449,-9.009 6.683,-12.964 15.702,-11.867c-0.249,2.001 0.813,3.93 2.631,4.779c-3.862,8.271 -9.973,10.634 -18.333,7.088Zm24.67,11.518c-8.086,-4.133 -10.199,-10.335 -6.337,-18.606c1.818,0.849 3.979,0.425 5.353,-1.051c6.632,6.209 6.96,12.762 0.984,19.657Zm18.634,-20.025c-6.446,6.455 -12.986,6.577 -19.618,0.368c1.373,-1.476 1.647,-3.668 0.677,-5.429c7.961,-4.433 14.274,-2.746 18.941,5.061Z" style="fill:#fff;fill-opacity:0.68;"/><path d="M148.091,60.037c8.904,1.874 12.599,7.304 11.085,16.289c-1.981,-0.344 -3.952,0.63 -4.882,2.412c-8.057,-4.257 -10.125,-10.49 -6.203,-18.701Zm-12.622,24.179c4.493,-7.908 10.768,-9.735 18.825,-5.478c-0.931,1.782 -0.609,3.967 0.797,5.412c-6.494,6.355 -13.034,6.377 -19.622,0.066Zm19.072,19.608c-6.127,-6.761 -5.944,-13.319 0.55,-19.674c1.406,1.445 3.576,1.822 5.375,0.933c4.043,8.184 2.068,14.431 -5.925,18.741Zm24.41,-12.06c-8.28,3.73 -14.442,1.503 -18.485,-6.681c1.799,-0.889 2.818,-2.841 2.524,-4.836c8.993,-1.296 14.313,2.543 15.961,11.517Zm-3.987,-27.062c1.01,9.067 -2.981,14.249 -11.974,15.545c-0.294,-1.994 -1.834,-3.577 -3.814,-3.921c1.514,-8.985 6.777,-12.86 15.788,-11.624Z" style="fill:#fff;fill-opacity:0.97;"/><path d="M115.256,107.307c8.904,1.874 12.599,7.303 11.085,16.288c-1.981,-0.343 -3.952,0.63 -4.882,2.413c-8.057,-4.257 -10.124,-10.49 -6.203,-18.701Zm-12.622,24.179c4.493,-7.909 10.768,-9.735 18.825,-5.478c-0.93,1.782 -0.608,3.967 0.797,5.412c-6.493,6.355 -13.034,6.377 -19.622,0.066Zm19.072,19.608c-6.127,-6.761 -5.943,-13.319 0.55,-19.674c1.406,1.445 3.576,1.822 5.375,0.933c4.043,8.184 2.069,14.431 -5.925,18.741Zm24.41,-12.06c-8.28,3.73 -14.442,1.503 -18.485,-6.681c1.799,-0.889 2.818,-2.841 2.524,-4.836c8.993,-1.297 14.313,2.542 15.961,11.517Zm-3.987,-27.062c1.01,9.067 -2.981,14.248 -11.974,15.545c-0.293,-1.994 -1.833,-3.578 -3.814,-3.922c1.514,-8.985 6.777,-12.859 15.788,-11.623Z" style="fill:#fff;fill-opacity:0.97;"/></g></g><g id="type-group-1"></g><g id="type-group-11" serif:id="type-group-1"></g></svg>