<?xml version="1.0" encoding="UTF-8" standalone="no"?><!DOCTYPE svg PUBLIC "-//W3C//DTD SVG 1.1//EN" "http://www.w3.org/Graphics/SVG/1.1/DTD/svg11.dtd"><svg width="100%" height="100%" viewBox="0 0 2114 773" version="1.1" xmlns="http://www.w3.org/2000/svg" xmlns:xlink="http://www.w3.org/1999/xlink" xml:space="preserve" xmlns:serif="http://www.serif.com/" style="fill-rule:evenodd;clip-rule:evenodd;stroke-linecap:square;stroke-linejoin:round;stroke-miterlimit:1.5;"><rect id="Artboard1" x="-515.774" y="-3913.72" width="3644.35" height="4946.76" style="fill:none;"/><rect x="1589.49" y="7.292" width="516.618" height="757.833" style="fill:#fff;stroke:#000;stroke-width:14.58px;"/><path d="M1866.2,331.904c0,-29.492 56.525,-40.081 66.584,-10.623c10.188,29.837 -22.907,49.047 -25.736,76.768c-1.079,10.581 1.352,23.837 9.637,31.321c0.709,0.64 12.781,9.811 12.923,9.527c0.36,-0.719 -18.655,-24.059 -19.603,-28.692c-2.693,-13.167 -0.501,-26.465 -6.242,-39.096c-19.799,-43.558 -97.762,9.271 -50.594,41.615c6.885,4.721 15.521,6.541 23.545,8.213c10.311,2.148 20.155,2.778 30.444,0.329" style="fill:none;stroke:#000;stroke-width:14.58px;"/><path d="M1989.73,255.684c-0,23.194 5.888,46.355 5.037,69.759c-1.533,42.173 -36.87,104.054 29.569,112.359" style="fill:none;stroke:#000;stroke-width:14.58px;"/><path d="M1963.45,363.443c22.937,0 39.171,11.444 62.531,-2.08" style="fill:none;stroke:#000;stroke-width:14.58px;"/><g id="This"><path d="M1712.9,281.357c-8.683,26.048 -0.223,66.913 0.633,93.859" style="fill:none;stroke:#000;stroke-width:14.58px;"/><path d="M1674.91,287.055c4.124,-4.124 19.312,-3.764 24.612,-4.59c22.736,-3.543 45.626,-5.925 68.297,-9.892" style="fill:none;stroke:#000;stroke-width:14.58px;"/><path d="M1794.57,264.263c-3.922,0 -7.135,26.99 -7.518,29.361c-4.228,26.16 -6.578,52.52 -10.288,78.743c-0.456,3.223 -1.187,24.79 -5.144,26.274c-0.726,0.272 5.468,-31.442 6.014,-33.476c5.379,-20.03 11.53,-41.566 26.274,-56.9c6.379,-6.634 16.969,-13.33 24.692,-4.749c22.486,24.985 -11.321,68.033 -14.641,94.175c-1.77,13.937 6.268,31.683 22.317,23.979" style="fill:none;stroke:#000;stroke-width:14.58px;"/></g><g id="Here"><g id="There"><path d="M549.126,380.134c6.763,-3.382 15.104,-15.482 20.636,-20.891c15.374,-15.032 50.945,-34.722 58.105,-55.652c2.968,-8.674 -7.181,-14.273 -13.701,-16.746c-14.639,-5.553 -33.533,-5.439 -47.195,2.706c-14.302,8.526 -19.301,25.696 -23.089,40.851c-12.813,51.251 16.943,93.404 74.513,83.478" style="fill:none;stroke:#000;stroke-width:14.58px;"/><path d="M394.364,290.555c0,15.41 5.703,32.292 8.034,47.479c5.726,37.302 9.892,73.129 8.868,110.923" style="fill:none;stroke:#000;stroke-width:14.58px;"/><path d="M472.58,272.781c0,28.126 12.844,59.716 17.432,87.388c4.94,29.798 2.986,59.67 4.775,89.776" style="fill:none;stroke:#000;stroke-width:14.58px;"/><path d="M407.097,369.55c27.798,0 55.977,-10.591 81.702,-21.065" style="fill:none;stroke:#000;stroke-width:14.58px;"/><path d="M806.028,427.481c6.763,-3.381 15.104,-15.481 20.637,-20.89c15.373,-15.032 50.944,-34.722 58.105,-55.653c2.967,-8.674 -7.182,-14.273 -13.702,-16.746c-14.639,-5.553 -33.532,-5.438 -47.194,2.707c-14.302,8.526 -19.301,25.695 -23.09,40.851c-12.813,51.25 16.943,93.404 74.513,83.478" style="fill:none;stroke:#000;stroke-width:14.58px;"/><path d="M670.117,289.815c21.731,-16.675 21.256,10.685 16.808,25.268c-8.795,28.835 -16.444,58.136 -25.468,86.818c-3.038,9.656 -10.574,20.393 -11.879,30.303c-0.208,1.581 1.715,-2.698 2.39,-4.142c1.517,-3.251 3.179,-6.417 4.801,-9.615c4.5,-8.877 8.924,-17.673 12.029,-27.159c8.654,-26.447 4.756,-70.396 29.144,-88.281c14.634,-10.731 33.876,-13.724 51.585,-12.011c7.527,0.728 16.228,2.387 19.294,10.276c3.848,9.9 5.079,47.779 -10.682,47.676" style="fill:none;stroke:#000;stroke-width:14.58px;"/></g><g id="cloud"><path d="M984.763,83.278c-8.643,14.405 -21.017,27.483 -30.497,41.496" style="fill:none;stroke:#000;stroke-width:14.58px;"/><path d="M843.102,29.619c-3.666,32.999 -7.76,65.998 -10.731,99.18" style="fill:none;stroke:#000;stroke-width:14.58px;"/><path d="M688.564,61.814c3.711,1.237 4.763,16.133 5.366,18.96c4.388,20.567 8.65,41.146 11.626,61.976" style="fill:none;stroke:#000;stroke-width:14.58px;"/><path d="M549.05,21.033c0,41.497 -2.057,82.964 -2.057,124.489" style="fill:none;stroke:#000;stroke-width:14.58px;"/><path d="M390.219,89.717c10.703,7.135 13.576,20.959 19.228,31.748c10.375,19.807 21.997,38.825 32.195,58.757" style="fill:none;stroke:#000;stroke-width:14.58px;"/><path d="M175.582,154.108c37.725,21.557 72.759,48.358 110.896,69.936" style="fill:none;stroke:#000;stroke-width:14.58px;"/><path d="M10.312,373.037c45.536,0 91.069,3.451 136.473,6.618" style="fill:none;stroke:#000;stroke-width:14.58px;"/><path d="M113.338,594.113c12.58,-25.161 44.762,-48.501 66.179,-65.375" style="fill:none;stroke:#000;stroke-width:14.58px;"/><path d="M315.096,722.895c9.21,-9.21 15.866,-26.489 22.358,-37.651c17.656,-30.356 34.38,-62.384 48.562,-94.529" style="fill:none;stroke:#000;stroke-width:14.58px;"/><path d="M549.05,714.31c0,-39.405 -13.664,-82.858 -21.732,-121.181" style="fill:none;stroke:#000;stroke-width:14.58px;"/><path d="M652.076,662.797c-0,-33.841 3.085,-67.356 6.081,-101.058" style="fill:none;stroke:#000;stroke-width:14.58px;"/><path d="M813.053,677.821c0,-38.638 -23.974,-84.301 -41.407,-117.155" style="fill:none;stroke:#000;stroke-width:14.58px;"/><path d="M926.811,617.723c-18.153,-24.203 -20.321,-65.757 -29.334,-94.082" style="fill:none;stroke:#000;stroke-width:14.58px;"/><path d="M1095.24,350.516c-27.428,12.769 -68.535,6.318 -98.111,9.293" style="fill:none;stroke:#000;stroke-width:14.58px;"/><path d="M1057.74,525.429c-28.996,-5.799 -61.715,-29.694 -88.985,-41.317" style="fill:none;stroke:#000;stroke-width:14.58px;"/><path d="M1124.28,186.303c-3.797,6.33 -18.68,10.13 -24.772,12.879c-21.523,9.711 -43.252,18.82 -64.928,28.171" style="fill:none;stroke:#000;stroke-width:14.58px;"/></g></g><path d="M1567.63,309.215c-79.772,51.509 -5.698,118.075 -5.698,118.075l-391.262,-66.566l391.262,-51.509" style="stroke:#000;stroke-width:14.58px;"/></svg>