<?xml version="1.0" encoding="UTF-8" standalone="no"?><!DOCTYPE svg PUBLIC "-//W3C//DTD SVG 1.1//EN" "http://www.w3.org/Graphics/SVG/1.1/DTD/svg11.dtd"><svg width="100%" height="100%" viewBox="0 0 2114 773" version="1.1" xmlns="http://www.w3.org/2000/svg" xmlns:xlink="http://www.w3.org/1999/xlink" xml:space="preserve" xmlns:serif="http://www.serif.com/" style="fill-rule:evenodd;clip-rule:evenodd;stroke-linecap:square;stroke-linejoin:round;stroke-miterlimit:1.5;"><rect id="Artboard1" x="-503.024" y="-3035.87" width="3644.35" height="4946.76" style="fill:none;"/><g><rect x="7.292" y="7.292" width="516.618" height="757.833" style="fill:#fff;stroke:#000;stroke-width:14.58px;"/><g id="This"><path d="M142.223,285.069c-8.682,26.047 -0.222,66.912 0.633,93.858" style="fill:none;stroke:#000;stroke-width:14.58px;"/><path d="M104.237,290.767c4.124,-4.125 19.311,-3.764 24.612,-4.59c22.736,-3.544 45.625,-5.925 68.297,-9.893" style="fill:none;stroke:#000;stroke-width:14.58px;"/><path d="M223.894,267.975c-3.921,-0 -7.135,26.989 -7.518,29.36c-4.228,26.16 -6.577,52.521 -10.288,78.743c-0.456,3.223 -1.186,24.79 -5.144,26.274c-0.725,0.272 5.469,-31.442 6.015,-33.475c5.378,-20.031 11.529,-41.567 26.274,-56.901c6.378,-6.633 16.968,-13.33 24.691,-4.748c22.486,24.984 -11.321,68.032 -14.641,94.175c-1.769,13.936 6.269,31.682 22.318,23.979" style="fill:none;stroke:#000;stroke-width:14.58px;"/><path d="M309.364,307.861c-3.283,-0 -5.73,17.252 -6.093,19.31c-4.027,22.819 -5.376,45.763 -7.677,68.771" style="fill:none;stroke:#000;stroke-width:14.58px;"/><path d="M315.062,277.471l-0.237,0" style="fill:none;stroke:#000;stroke-width:14.58px;"/><path d="M307.465,275.572c0.497,0.498 1.417,0.71 2.058,0.95" style="fill:none;stroke:#000;stroke-width:14.58px;"/><path d="M406.23,349.646c20.792,-0 55.554,-17.056 39.807,-42.577c-14.532,-23.552 -62.033,-32.644 -85.312,-19.864c-19.441,10.674 -21.922,33.464 -8.863,50.254c23.208,29.838 72.691,63.646 55.714,107.787c-8.038,20.898 -39.961,39.584 -60.937,26.195c-16.679,-10.646 -20.63,-45.176 -11.08,-61.412" style="fill:none;stroke:#000;stroke-width:14.58px;"/></g><g id="There"><g id="There1" serif:id="There"><path d="M1266.09,280.895c-8.682,26.047 -0.222,66.913 0.633,93.859" style="fill:none;stroke:#000;stroke-width:14.58px;"/><path d="M1228.1,286.593c4.124,-4.124 19.311,-3.764 24.612,-4.59c22.735,-3.543 45.625,-5.925 68.297,-9.892" style="fill:none;stroke:#000;stroke-width:14.58px;"/><path d="M1347.76,263.801c-3.922,0 -7.135,26.99 -7.518,29.361c-4.228,26.16 -6.577,52.52 -10.288,78.743c-0.456,3.223 -1.186,24.79 -5.144,26.274c-0.725,0.272 5.469,-31.442 6.015,-33.476c5.378,-20.03 11.529,-41.566 26.274,-56.901c6.378,-6.633 16.968,-13.329 24.691,-4.748c22.486,24.984 -11.321,68.032 -14.641,94.175c-1.769,13.937 6.269,31.683 22.318,23.979" style="fill:none;stroke:#000;stroke-width:14.58px;"/><path d="M1426.16,380.134c6.764,-3.382 15.105,-15.482 20.637,-20.891c15.374,-15.032 50.945,-34.722 58.105,-55.652c2.967,-8.674 -7.182,-14.273 -13.702,-16.746c-14.639,-5.553 -33.532,-5.439 -47.194,2.706c-14.302,8.526 -19.301,25.696 -23.09,40.851c-12.812,51.251 16.943,93.404 74.513,83.478" style="fill:none;stroke:#000;stroke-width:14.58px;"/><path d="M1683.06,427.481c6.764,-3.381 15.105,-15.481 20.637,-20.89c15.374,-15.032 50.945,-34.722 58.105,-55.653c2.968,-8.674 -7.182,-14.273 -13.701,-16.746c-14.64,-5.553 -33.533,-5.438 -47.195,2.707c-14.302,8.526 -19.301,25.695 -23.09,40.851c-12.812,51.25 16.944,93.404 74.513,83.478" style="fill:none;stroke:#000;stroke-width:14.58px;"/><path d="M1547.15,289.815c21.731,-16.675 21.256,10.685 16.808,25.268c-8.795,28.835 -16.445,58.136 -25.468,86.818c-3.038,9.656 -10.575,20.393 -11.88,30.303c-0.208,1.581 1.716,-2.698 2.39,-4.142c1.518,-3.251 3.18,-6.417 4.801,-9.615c4.501,-8.877 8.925,-17.673 12.029,-27.159c8.655,-26.447 4.757,-70.396 29.144,-88.281c14.634,-10.731 33.876,-13.724 51.586,-12.011c7.527,0.728 16.227,2.387 19.294,10.276c3.847,9.9 5.079,47.779 -10.683,47.676" style="fill:none;stroke:#000;stroke-width:14.58px;"/></g><g id="cloud"><path d="M1128.64,83.278c8.643,14.405 21.017,27.483 30.497,41.496" style="fill:none;stroke:#000;stroke-width:14.58px;"/><path d="M1270.3,29.619c3.666,32.999 7.76,65.998 10.731,99.18" style="fill:none;stroke:#000;stroke-width:14.58px;"/><path d="M1424.84,61.814c-3.711,1.237 -4.763,16.133 -5.366,18.96c-4.388,20.567 -8.65,41.146 -11.626,61.976" style="fill:none;stroke:#000;stroke-width:14.58px;"/><path d="M1564.35,21.033c-0,41.497 2.057,82.964 2.057,124.489" style="fill:none;stroke:#000;stroke-width:14.58px;"/><path d="M1723.18,89.717c-10.703,7.135 -13.576,20.959 -19.228,31.748c-10.375,19.807 -21.997,38.825 -32.195,58.757" style="fill:none;stroke:#000;stroke-width:14.58px;"/><path d="M1937.82,154.108c-37.725,21.557 -72.759,48.358 -110.896,69.936" style="fill:none;stroke:#000;stroke-width:14.58px;"/><path d="M2103.09,373.037c-45.536,0 -91.069,3.451 -136.473,6.618" style="fill:none;stroke:#000;stroke-width:14.58px;"/><path d="M2000.06,594.113c-12.58,-25.161 -44.762,-48.501 -66.179,-65.375" style="fill:none;stroke:#000;stroke-width:14.58px;"/><path d="M1798.31,722.895c-9.21,-9.21 -15.866,-26.489 -22.358,-37.651c-17.656,-30.356 -34.38,-62.384 -48.562,-94.529" style="fill:none;stroke:#000;stroke-width:14.58px;"/><path d="M1564.35,714.31c-0,-39.405 13.664,-82.858 21.732,-121.181" style="fill:none;stroke:#000;stroke-width:14.58px;"/><path d="M1461.33,662.797c0,-33.841 -3.085,-67.356 -6.081,-101.058" style="fill:none;stroke:#000;stroke-width:14.58px;"/><path d="M1300.35,677.821c-0,-38.638 23.974,-84.301 41.407,-117.155" style="fill:none;stroke:#000;stroke-width:14.58px;"/><path d="M1186.59,617.723c18.153,-24.203 20.321,-65.757 29.334,-94.082" style="fill:none;stroke:#000;stroke-width:14.58px;"/><path d="M1018.16,350.516c27.428,12.769 68.535,6.318 98.111,9.293" style="fill:none;stroke:#000;stroke-width:14.58px;"/><path d="M1055.66,525.429c28.996,-5.799 61.715,-29.694 88.985,-41.317" style="fill:none;stroke:#000;stroke-width:14.58px;"/><path d="M989.125,186.303c3.797,6.33 18.68,10.13 24.772,12.879c21.523,9.711 43.252,18.82 64.928,28.171" style="fill:none;stroke:#000;stroke-width:14.58px;"/></g></g><path d="M545.772,309.215c79.772,51.509 5.698,118.075 5.698,118.075l391.262,-66.566l-391.262,-51.509" style="stroke:#000;stroke-width:14.58px;"/></g><g id="This1" serif:id="This"></g><g id="Here"></g></svg>