<?xml version="1.0" encoding="UTF-8" standalone="no"?><!DOCTYPE svg PUBLIC "-//W3C//DTD SVG 1.1//EN" "http://www.w3.org/Graphics/SVG/1.1/DTD/svg11.dtd"><svg width="100%" height="100%" viewBox="0 0 5000 2625" version="1.1" xmlns="http://www.w3.org/2000/svg" xmlns:xlink="http://www.w3.org/1999/xlink" xml:space="preserve" xmlns:serif="http://www.serif.com/" style="fill-rule:evenodd;clip-rule:evenodd;stroke-linecap:round;stroke-linejoin:round;stroke-miterlimit:1.5;"><rect x="0" y="0" width="5000" height="2625" style="fill:#fff;"/><g><g><path d="M2500.68,1317.11c-0,-0 988.144,597.381 1494.97,799.856c1210.8,483.713 1303.76,697.554 1303.76,697.554l-234.161,114.961c0,-0 -886.12,-834.61 -1118.05,-699.693c-739.756,-591.764 -1446.52,-912.678 -1446.52,-912.678Z" style="stroke:#000;stroke-width:4.17px;"/></g><g><path d="M2500.28,1317.15c-0,-0 932.319,681.23 1419.57,927.107c1164.03,587.4 1238,808.53 1238,808.53l-243.289,94.115c-0,-0 -810.007,-908.665 -1052.81,-794.475c-685.365,-653.986 -1361.47,-1035.28 -1361.47,-1035.28Z" style="stroke:#000;stroke-width:4.17px;"/></g><g><path d="M2499.87,1317.15c0,0 869.399,759.896 1333.36,1047.3c1108.41,686.617 1162.82,913.352 1162.82,913.352l-250.567,72.553c0,-0 -727.729,-975.804 -979.561,-883.21c-625.758,-711.231 -1266.06,-1150 -1266.06,-1150Z" style="stroke:#000;stroke-width:4.17px;"/></g><g><path d="M2499.47,1317.13c0,0 799.861,832.777 1237.01,1159.53c1044.35,780.608 1078.79,1011.22 1078.79,1011.22l-255.936,50.438c-0,0 -639.913,-1035.52 -898.857,-965.223c-561.389,-763.063 -1161.01,-1255.97 -1161.01,-1255.97Z" style="stroke:#000;stroke-width:4.17px;"/></g><g><path d="M2499.07,1317.06c-0,0 724.236,899.321 1131.24,1262.93c972.337,868.658 986.554,1101.4 986.554,1101.4l-259.358,27.94c-0,-0 -547.227,-1087.35 -811.312,-1039.89c-492.747,-809.088 -1047.13,-1352.38 -1047.13,-1352.38Z" style="stroke:#000;stroke-width:4.17px;"/></g><g><path d="M2498.67,1316.96c-0,0 643.099,959.02 1016.87,1356.72c892.928,950.097 886.807,1183.19 886.807,1183.19l-260.807,5.229c0,0 -450.376,-1130.9 -717.592,-1106.64c-420.356,-848.955 -925.274,-1438.49 -925.274,-1438.49Z" style="stroke:#000;stroke-width:4.17px;"/></g><g><path d="M2498.29,1316.83c-0,0 557.067,1011.42 894.75,1440.18c806.725,1024.31 780.311,1255.98 780.311,1255.98l-260.269,-17.521c-0,-0 -350.098,-1165.85 -618.411,-1164.98c-344.765,-882.36 -796.381,-1513.66 -796.381,-1513.66Z" style="stroke:#000;stroke-width:4.17px;"/></g><g><path d="M2497.92,1316.66c0,-0 466.797,1056.12 765.826,1512.68c714.38,1090.72 667.876,1319.21 667.876,1319.21l-257.753,-40.139c0,-0 -247.154,-1191.93 -514.523,-1214.44c-266.55,-909.051 -661.426,-1577.31 -661.426,-1577.31Z" style="stroke:#000;stroke-width:4.17px;"/></g><g><path d="M2497.56,1316.47c-0,0 372.973,1092.79 631.073,1573.67c616.6,1148.83 550.358,1372.4 550.358,1372.4l-253.274,-62.451c0,-0 -142.33,-1208.94 -406.72,-1254.66c-186.307,-928.823 -521.437,-1628.95 -521.437,-1628.95Z" style="stroke:#000;stroke-width:4.17px;"/></g><g><path d="M2497.22,1316.24c-0,0 276.311,1121.14 491.516,1622.68c514.127,1198.2 428.652,1415.14 428.652,1415.14l-246.867,-84.288c0,0 -36.423,-1216.74 -295.821,-1285.34c-104.646,-941.526 -377.48,-1668.2 -377.48,-1668.2Z" style="stroke:#000;stroke-width:4.17px;"/></g><g><path d="M2496.91,1315.98c0,0 177.546,1140.95 348.22,1659.35c407.74,1238.45 303.683,1447.12 303.683,1447.12l-238.581,-105.483c-0,0 69.762,-1215.28 -182.671,-1306.23c-22.188,-947.065 -230.651,-1694.76 -230.651,-1694.76Z" style="stroke:#000;stroke-width:4.17px;"/></g><g><path d="M2496.62,1315.7c0,-0 77.43,1152.08 202.274,1683.38c298.25,1269.27 176.402,1468.08 176.402,1468.08l-228.48,-125.875c0,0 175.416,-1204.58 -68.13,-1317.18c60.438,-945.395 -82.066,-1708.41 -82.066,-1708.41Z" style="stroke:#000;stroke-width:4.17px;"/></g><g><path d="M2496.35,1315.39c0,-0 -23.275,1154.45 54.787,1694.61c186.491,1290.44 47.78,1477.87 47.78,1477.87l-216.639,-145.31c-0,0 279.733,-1184.71 46.928,-1318.1c142.605,-936.529 67.144,-1709.06 67.144,-1709.06Z" style="stroke:#000;stroke-width:4.17px;"/></g><g><path d="M2496.11,1315.07c-0,-0 -123.804,1148.03 -93.116,1692.93c73.312,1301.78 -81.207,1476.41 -81.207,1476.41l-203.15,-163.638c-0,0 381.923,-1155.82 161.63,-1309c223.686,-920.536 215.843,-1696.7 215.843,-1696.7Z" style="stroke:#000;stroke-width:4.17px;"/></g><g><path d="M2495.9,1314.72c0,0 -223.39,1132.87 -240.311,1678.38c-40.424,1303.22 -209.574,1463.71 -209.574,1463.71l-188.116,-180.721c0,0 481.207,-1118.13 275.102,-1289.93c303.065,-897.538 362.899,-1671.43 362.899,-1671.43Z" style="stroke:#000;stroke-width:4.17px;"/></g><g><path d="M2495.73,1314.35c-0,-0 -321.276,1109.09 -385.677,1651.04c-153.853,1294.73 -336.348,1439.88 -336.348,1439.88l-171.648,-196.429c-0,0 576.826,-1071.94 386.479,-1261.04c380.137,-867.709 507.194,-1633.45 507.194,-1633.45Z" style="stroke:#000;stroke-width:4.17px;"/></g><g><path d="M2495.58,1313.97c-0,0 -416.717,1076.87 -528.107,1611.15c-266.111,1276.4 -460.562,1405.08 -460.562,1405.08l-153.875,-210.641c-0,-0 668.057,-1017.59 494.916,-1222.56c454.316,-831.276 647.628,-1583.03 647.628,-1583.03Z" style="stroke:#000;stroke-width:4.17px;"/></g><g><path d="M2495.47,1313.58c0,-0 -508.986,1036.45 -666.518,1558.99c-376.344,1248.35 -581.269,1359.59 -581.269,1359.59l-134.932,-223.25c0,-0 754.204,-955.489 599.586,-1174.78c525.038,-788.517 783.133,-1520.56 783.133,-1520.56Z" style="stroke:#000;stroke-width:4.17px;"/></g><g><path d="M2495.39,1313.18c0,-0 -597.381,988.144 -799.856,1494.97c-483.713,1210.8 -697.554,1303.76 -697.554,1303.76l-114.961,-234.161c0,0 834.61,-886.12 699.693,-1118.05c591.764,-739.756 912.678,-1446.52 912.678,-1446.52Z" style="stroke:#000;stroke-width:4.17px;"/></g><g><path d="M2495.35,1312.78c0,-0 -681.23,932.319 -927.107,1419.57c-587.4,1164.03 -808.53,1238 -808.53,1238l-94.115,-243.289c0,-0 908.665,-810.007 794.475,-1052.81c653.986,-685.365 1035.28,-1361.47 1035.28,-1361.47Z" style="stroke:#000;stroke-width:4.17px;"/></g><g><path d="M2495.35,1312.37c-0,0 -759.896,869.399 -1047.3,1333.36c-686.617,1108.41 -913.352,1162.82 -913.352,1162.82l-72.553,-250.567c0,0 975.804,-727.729 883.21,-979.561c711.231,-625.758 1150,-1266.06 1150,-1266.06Z" style="stroke:#000;stroke-width:4.17px;"/></g><g><path d="M2495.37,1311.97c-0,0 -832.777,799.861 -1159.53,1237.01c-780.608,1044.35 -1011.22,1078.79 -1011.22,1078.79l-50.438,-255.936c-0,-0 1035.52,-639.913 965.223,-898.857c763.063,-561.389 1255.97,-1161.01 1255.97,-1161.01Z" style="stroke:#000;stroke-width:4.17px;"/></g><g><path d="M2495.44,1311.57c-0,-0 -899.321,724.236 -1262.93,1131.24c-868.658,972.337 -1101.4,986.554 -1101.4,986.554l-27.94,-259.358c0,-0 1087.35,-547.227 1039.89,-811.312c809.088,-492.747 1352.38,-1047.13 1352.38,-1047.13Z" style="stroke:#000;stroke-width:4.17px;"/></g><g><path d="M2495.54,1311.17c-0,-0 -959.02,643.099 -1356.72,1016.87c-950.097,892.928 -1183.19,886.807 -1183.19,886.807l-5.229,-260.807c-0,0 1130.9,-450.376 1106.64,-717.592c848.955,-420.356 1438.49,-925.274 1438.49,-925.274Z" style="stroke:#000;stroke-width:4.17px;"/></g><g><path d="M2495.67,1310.79c-0,-0 -1011.42,557.067 -1440.18,894.75c-1024.31,806.725 -1255.98,780.311 -1255.98,780.311l17.521,-260.269c0,-0 1165.85,-350.098 1164.98,-618.411c882.36,-344.765 1513.66,-796.381 1513.66,-796.381Z" style="stroke:#000;stroke-width:4.17px;"/></g><g><path d="M2495.84,1310.42c0,0 -1056.12,466.797 -1512.68,765.826c-1090.72,714.38 -1319.21,667.876 -1319.21,667.876l40.139,-257.753c0,0 1191.93,-247.154 1214.44,-514.523c909.051,-266.55 1577.31,-661.426 1577.31,-661.426Z" style="stroke:#000;stroke-width:4.17px;"/></g><g><path d="M2496.03,1310.06c-0,-0 -1092.79,372.973 -1573.67,631.073c-1148.83,616.6 -1372.4,550.358 -1372.4,550.358l62.451,-253.274c0,0 1208.94,-142.33 1254.66,-406.72c928.823,-186.307 1628.95,-521.437 1628.95,-521.437Z" style="stroke:#000;stroke-width:4.17px;"/></g><g><path d="M2496.26,1309.73c-0,-0 -1121.14,276.311 -1622.68,491.516c-1198.2,514.127 -1415.14,428.652 -1415.14,428.652l84.288,-246.867c-0,0 1216.74,-36.423 1285.34,-295.821c941.526,-104.646 1668.2,-377.48 1668.2,-377.48Z" style="stroke:#000;stroke-width:4.17px;"/></g><g><path d="M2496.52,1309.41c-0,0 -1140.95,177.546 -1659.35,348.22c-1238.45,407.74 -1447.12,303.683 -1447.12,303.683l105.483,-238.581c-0,-0 1215.28,69.762 1306.23,-182.671c947.065,-22.188 1694.76,-230.651 1694.76,-230.651Z" style="stroke:#000;stroke-width:4.17px;"/></g><g><path d="M2496.8,1309.12c0,0 -1152.08,77.43 -1683.38,202.274c-1269.27,298.25 -1468.08,176.402 -1468.08,176.402l125.875,-228.48c-0,0 1204.58,175.416 1317.18,-68.13c945.395,60.438 1708.41,-82.066 1708.41,-82.066Z" style="stroke:#000;stroke-width:4.17px;"/></g><g><path d="M2497.11,1308.85c0,0 -1154.45,-23.275 -1694.61,54.787c-1290.44,186.491 -1477.87,47.78 -1477.87,47.78l145.31,-216.639c-0,-0 1184.71,279.733 1318.1,46.928c936.529,142.605 1709.06,67.144 1709.06,67.144Z" style="stroke:#000;stroke-width:4.17px;"/></g><g><path d="M2497.43,1308.61c0,-0 -1148.03,-123.804 -1692.93,-93.116c-1301.78,73.312 -1476.41,-81.207 -1476.41,-81.207l163.638,-203.15c-0,-0 1155.82,381.923 1309,161.63c920.536,223.686 1696.7,215.843 1696.7,215.843Z" style="stroke:#000;stroke-width:4.17px;"/></g><g><path d="M2497.78,1308.4c-0,0 -1132.87,-223.39 -1678.38,-240.311c-1303.22,-40.424 -1463.71,-209.574 -1463.71,-209.574l180.721,-188.116c-0,0 1118.13,481.207 1289.93,275.102c897.538,303.065 1671.43,362.899 1671.43,362.899Z" style="stroke:#000;stroke-width:4.17px;"/></g><g><path d="M2498.15,1308.23c0,-0 -1109.09,-321.276 -1651.04,-385.677c-1294.73,-153.853 -1439.88,-336.348 -1439.88,-336.348l196.429,-171.648c-0,-0 1071.94,576.826 1261.04,386.479c867.709,380.137 1633.45,507.194 1633.45,507.194Z" style="stroke:#000;stroke-width:4.17px;"/></g><g><path d="M2498.53,1308.08c-0,-0 -1076.87,-416.717 -1611.15,-528.107c-1276.4,-266.111 -1405.08,-460.562 -1405.08,-460.562l210.641,-153.875c0,-0 1017.59,668.057 1222.56,494.916c831.276,454.316 1583.03,647.628 1583.03,647.628Z" style="stroke:#000;stroke-width:4.17px;"/></g><g><path d="M2498.92,1307.97c0,0 -1036.45,-508.986 -1558.99,-666.518c-1248.35,-376.344 -1359.59,-581.269 -1359.59,-581.269l223.25,-134.932c0,0 955.489,754.204 1174.78,599.586c788.517,525.038 1520.56,783.133 1520.56,783.133Z" style="stroke:#000;stroke-width:4.17px;"/></g><g><path d="M2499.32,1307.89c0,0 -988.144,-597.381 -1494.97,-799.856c-1210.8,-483.713 -1303.76,-697.554 -1303.76,-697.554l234.161,-114.961c-0,0 886.12,834.61 1118.05,699.693c739.756,591.764 1446.52,912.678 1446.52,912.678Z" style="stroke:#000;stroke-width:4.17px;"/></g><g><path d="M2499.72,1307.85c0,0 -932.319,-681.23 -1419.57,-927.107c-1164.03,-587.4 -1238,-808.53 -1238,-808.53l243.289,-94.115c0,0 810.007,908.665 1052.81,794.475c685.365,653.986 1361.47,1035.28 1361.47,1035.28Z" style="stroke:#000;stroke-width:4.17px;"/></g><g><path d="M2500.13,1307.85c-0,-0 -869.399,-759.896 -1333.36,-1047.3c-1108.41,-686.617 -1162.82,-913.352 -1162.82,-913.352l250.567,-72.553c-0,0 727.729,975.804 979.561,883.21c625.758,711.231 1266.06,1150 1266.06,1150Z" style="stroke:#000;stroke-width:4.17px;"/></g><g><path d="M2500.53,1307.87c-0,-0 -799.861,-832.777 -1237.01,-1159.53c-1044.35,-780.608 -1078.79,-1011.22 -1078.79,-1011.22l255.936,-50.438c0,-0 639.913,1035.52 898.857,965.223c561.389,763.063 1161.01,1255.97 1161.01,1255.97Z" style="stroke:#000;stroke-width:4.17px;"/></g><g><path d="M2500.93,1307.94c0,-0 -724.236,-899.321 -1131.24,-1262.93c-972.337,-868.658 -986.554,-1101.4 -986.554,-1101.4l259.358,-27.94c0,0 547.227,1087.35 811.312,1039.89c492.747,809.088 1047.13,1352.38 1047.13,1352.38Z" style="stroke:#000;stroke-width:4.17px;"/></g><g><path d="M2501.33,1308.04c0,-0 -643.099,-959.02 -1016.87,-1356.72c-892.928,-950.097 -886.807,-1183.19 -886.807,-1183.19l260.807,-5.229c-0,-0 450.376,1130.9 717.592,1106.64c420.356,848.955 925.274,1438.49 925.274,1438.49Z" style="stroke:#000;stroke-width:4.17px;"/></g><g><path d="M2501.71,1308.17c0,-0 -557.067,-1011.42 -894.75,-1440.18c-806.725,-1024.31 -780.311,-1255.98 -780.311,-1255.98l260.269,17.521c0,0 350.098,1165.85 618.411,1164.98c344.765,882.36 796.381,1513.66 796.381,1513.66Z" style="stroke:#000;stroke-width:4.17px;"/></g><g><path d="M2502.08,1308.34c-0,0 -466.797,-1056.12 -765.826,-1512.68c-714.38,-1090.72 -667.876,-1319.21 -667.876,-1319.21l257.753,40.139c-0,0 247.154,1191.93 514.523,1214.44c266.55,909.051 661.426,1577.31 661.426,1577.31Z" style="stroke:#000;stroke-width:4.17px;"/></g><g><path d="M2502.44,1308.53c0,-0 -372.973,-1092.79 -631.073,-1573.67c-616.6,-1148.83 -550.358,-1372.4 -550.358,-1372.4l253.274,62.451c-0,0 142.33,1208.94 406.72,1254.66c186.307,928.823 521.437,1628.95 521.437,1628.95Z" style="stroke:#000;stroke-width:4.17px;"/></g><g><path d="M2502.78,1308.76c0,-0 -276.311,-1121.14 -491.516,-1622.68c-514.127,-1198.2 -428.652,-1415.14 -428.652,-1415.14l246.867,84.288c-0,-0 36.423,1216.74 295.821,1285.34c104.646,941.526 377.48,1668.2 377.48,1668.2Z" style="stroke:#000;stroke-width:4.17px;"/></g><g><path d="M2503.09,1309.02c-0,-0 -177.546,-1140.95 -348.22,-1659.35c-407.74,-1238.45 -303.683,-1447.12 -303.683,-1447.12l238.581,105.483c0,-0 -69.762,1215.28 182.671,1306.23c22.188,947.065 230.651,1694.76 230.651,1694.76Z" style="stroke:#000;stroke-width:4.17px;"/></g><g><path d="M2503.38,1309.3c-0,0 -77.43,-1152.08 -202.274,-1683.38c-298.25,-1269.27 -176.402,-1468.08 -176.402,-1468.08l228.48,125.875c-0,-0 -175.416,1204.58 68.13,1317.18c-60.438,945.395 82.066,1708.41 82.066,1708.41Z" style="stroke:#000;stroke-width:4.17px;"/></g><g><path d="M2503.65,1309.61c-0,0 23.275,-1154.45 -54.787,-1694.61c-186.491,-1290.44 -47.78,-1477.87 -47.78,-1477.87l216.639,145.31c0,-0 -279.733,1184.71 -46.928,1318.1c-142.605,936.529 -67.144,1709.06 -67.144,1709.06Z" style="stroke:#000;stroke-width:4.17px;"/></g><g><path d="M2503.89,1309.93c0,0 123.804,-1148.03 93.116,-1692.93c-73.312,-1301.78 81.207,-1476.41 81.207,-1476.41l203.15,163.638c0,-0 -381.923,1155.82 -161.63,1309c-223.686,920.536 -215.843,1696.7 -215.843,1696.7Z" style="stroke:#000;stroke-width:4.17px;"/></g><g><path d="M2504.1,1310.28c-0,-0 223.39,-1132.87 240.311,-1678.38c40.424,-1303.22 209.574,-1463.71 209.574,-1463.71l188.116,180.721c-0,-0 -481.207,1118.13 -275.102,1289.93c-303.065,897.538 -362.899,1671.43 -362.899,1671.43Z" style="stroke:#000;stroke-width:4.17px;"/></g><g><path d="M2504.27,1310.65c0,0 321.276,-1109.09 385.677,-1651.04c153.853,-1294.73 336.348,-1439.88 336.348,-1439.88l171.648,196.429c0,-0 -576.826,1071.94 -386.479,1261.04c-380.137,867.709 -507.194,1633.45 -507.194,1633.45Z" style="stroke:#000;stroke-width:4.17px;"/></g><g><path d="M2504.42,1311.03c0,-0 416.717,-1076.87 528.107,-1611.15c266.111,-1276.4 460.562,-1405.08 460.562,-1405.08l153.875,210.641c0,0 -668.057,1017.59 -494.916,1222.56c-454.316,831.276 -647.628,1583.03 -647.628,1583.03Z" style="stroke:#000;stroke-width:4.17px;"/></g><g><path d="M2504.53,1311.42c-0,0 508.986,-1036.45 666.518,-1558.99c376.344,-1248.35 581.269,-1359.59 581.269,-1359.59l134.932,223.25c-0,0 -754.204,955.489 -599.586,1174.78c-525.038,788.517 -783.133,1520.56 -783.133,1520.56Z" style="stroke:#000;stroke-width:4.17px;"/></g><g><path d="M2504.61,1311.82c-0,0 597.381,-988.144 799.856,-1494.97c483.713,-1210.8 697.554,-1303.76 697.554,-1303.76l114.961,234.161c-0,-0 -834.61,886.12 -699.693,1118.05c-591.764,739.756 -912.678,1446.52 -912.678,1446.52Z" style="stroke:#000;stroke-width:4.17px;"/></g><g><path d="M2504.65,1312.22c-0,0 681.23,-932.319 927.107,-1419.57c587.4,-1164.03 808.53,-1238 808.53,-1238l94.115,243.289c-0,0 -908.665,810.007 -794.475,1052.81c-653.986,685.365 -1035.28,1361.47 -1035.28,1361.47Z" style="stroke:#000;stroke-width:4.17px;"/></g><g><path d="M2504.66,1312.63c0,-0 759.896,-869.399 1047.3,-1333.36c686.617,-1108.41 913.352,-1162.82 913.352,-1162.82l72.553,250.567c-0,-0 -975.804,727.729 -883.21,979.561c-711.231,625.758 -1150,1266.06 -1150,1266.06Z" style="stroke:#000;stroke-width:4.17px;"/></g><g><path d="M2504.63,1313.03c0,-0 832.777,-799.861 1159.53,-1237.01c780.608,-1044.35 1011.22,-1078.79 1011.22,-1078.79l50.438,255.936c0,0 -1035.52,639.913 -965.223,898.857c-763.063,561.389 -1255.97,1161.01 -1255.97,1161.01Z" style="stroke:#000;stroke-width:4.17px;"/></g><g><path d="M2504.56,1313.43c0,0 899.321,-724.236 1262.93,-1131.24c868.658,-972.337 1101.4,-986.554 1101.4,-986.554l27.94,259.358c-0,0 -1087.35,547.227 -1039.89,811.312c-809.088,492.747 -1352.38,1047.13 -1352.38,1047.13Z" style="stroke:#000;stroke-width:4.17px;"/></g><g><path d="M2504.46,1313.83c0,0 959.02,-643.099 1356.72,-1016.87c950.097,-892.928 1183.19,-886.807 1183.19,-886.807l5.229,260.807c0,-0 -1130.9,450.376 -1106.64,717.592c-848.955,420.356 -1438.49,925.274 -1438.49,925.274Z" style="stroke:#000;stroke-width:4.17px;"/></g><g><path d="M2504.33,1314.21c0,0 1011.42,-557.067 1440.18,-894.75c1024.31,-806.725 1255.98,-780.311 1255.98,-780.311l-17.521,260.269c-0,0 -1165.85,350.098 -1164.98,618.411c-882.36,344.765 -1513.66,796.381 -1513.66,796.381Z" style="stroke:#000;stroke-width:4.17px;"/></g><g><path d="M2504.16,1314.58c-0,-0 1056.12,-466.797 1512.68,-765.826c1090.72,-714.38 1319.21,-667.876 1319.21,-667.876l-40.139,257.753c-0,-0 -1191.93,247.154 -1214.44,514.523c-909.051,266.55 -1577.31,661.426 -1577.31,661.426Z" style="stroke:#000;stroke-width:4.17px;"/></g><g><path d="M2503.97,1314.94c0,0 1092.79,-372.973 1573.67,-631.073c1148.83,-616.6 1372.4,-550.358 1372.4,-550.358l-62.451,253.274c-0,-0 -1208.94,142.33 -1254.66,406.72c-928.823,186.307 -1628.95,521.437 -1628.95,521.437Z" style="stroke:#000;stroke-width:4.17px;"/></g><g><path d="M2503.74,1315.28c0,0 1121.14,-276.311 1622.68,-491.516c1198.2,-514.127 1415.14,-428.652 1415.14,-428.652l-84.288,246.867c0,-0 -1216.74,36.423 -1285.34,295.821c-941.526,104.646 -1668.2,377.48 -1668.2,377.48Z" style="stroke:#000;stroke-width:4.17px;"/></g><g><path d="M2503.48,1315.59c0,-0 1140.95,-177.546 1659.35,-348.22c1238.45,-407.74 1447.12,-303.683 1447.12,-303.683l-105.483,238.581c0,0 -1215.28,-69.762 -1306.23,182.671c-947.065,22.188 -1694.76,230.651 -1694.76,230.651Z" style="stroke:#000;stroke-width:4.17px;"/></g><g><path d="M2503.2,1315.88c-0,-0 1152.08,-77.43 1683.38,-202.274c1269.27,-298.25 1468.08,-176.402 1468.08,-176.402l-125.875,228.48c0,-0 -1204.58,-175.416 -1317.18,68.13c-945.395,-60.438 -1708.41,82.066 -1708.41,82.066Z" style="stroke:#000;stroke-width:4.17px;"/></g><g><path d="M2502.89,1316.15c-0,-0 1154.45,23.275 1694.61,-54.787c1290.44,-186.491 1477.87,-47.78 1477.87,-47.78l-145.31,216.639c0,0 -1184.71,-279.733 -1318.1,-46.928c-936.529,-142.605 -1709.06,-67.144 -1709.06,-67.144Z" style="stroke:#000;stroke-width:4.17px;"/></g><g><path d="M2502.57,1316.39c-0,0 1148.03,123.804 1692.93,93.116c1301.78,-73.312 1476.41,81.207 1476.41,81.207l-163.638,203.15c0,0 -1155.82,-381.923 -1309,-161.63c-920.536,-223.686 -1696.7,-215.843 -1696.7,-215.843Z" style="stroke:#000;stroke-width:4.17px;"/></g><g><path d="M2502.22,1316.6c0,-0 1132.87,223.39 1678.38,240.311c1303.22,40.424 1463.71,209.574 1463.71,209.574l-180.721,188.116c0,-0 -1118.13,-481.207 -1289.93,-275.102c-897.538,-303.065 -1671.43,-362.899 -1671.43,-362.899Z" style="stroke:#000;stroke-width:4.17px;"/></g><g><path d="M2501.85,1316.77c-0,0 1109.09,321.276 1651.04,385.677c1294.73,153.853 1439.88,336.348 1439.88,336.348l-196.429,171.648c0,0 -1071.94,-576.826 -1261.04,-386.479c-867.709,-380.137 -1633.45,-507.194 -1633.45,-507.194Z" style="stroke:#000;stroke-width:4.17px;"/></g><g><path d="M2501.47,1316.92c0,0 1076.87,416.717 1611.15,528.107c1276.4,266.111 1405.08,460.562 1405.08,460.562l-210.641,153.875c-0,0 -1017.59,-668.057 -1222.56,-494.916c-831.276,-454.316 -1583.03,-647.628 -1583.03,-647.628Z" style="stroke:#000;stroke-width:4.17px;"/></g><g><path d="M2501.08,1317.03c-0,-0 1036.45,508.986 1558.99,666.518c1248.35,376.344 1359.59,581.269 1359.59,581.269l-223.25,134.932c-0,-0 -955.489,-754.204 -1174.78,-599.586c-788.517,-525.038 -1520.56,-783.133 -1520.56,-783.133Z" style="stroke:#000;stroke-width:4.17px;"/></g></g></svg>